<svg width="32" height="25" viewBox="0 0 32 25" fill="none" xmlns="http://www.w3.org/2000/svg">
<path d="M0 4C0 4 0 0 4 0H28C28 0 32 0 32 4V16C32 16 32 20 28 20H20C20 21.3333 20.1667 22.3333 20.5 23H22C22.2652 23 22.5196 23.1054 22.7071 23.2929C22.8946 23.4804 23 23.7348 23 24C23 24.2652 22.8946 24.5196 22.7071 24.7071C22.5196 24.8946 22.2652 25 22 25H10C9.73478 25 9.48043 24.8946 9.29289 24.7071C9.10536 24.5196 9 24.2652 9 24C9 23.7348 9.10536 23.4804 9.29289 23.2929C9.48043 23.1054 9.73478 23 10 23H11.5C11.8333 22.3333 12 21.3333 12 20H4C4 20 0 20 0 16V4ZM2.796 2.29C2.57644 2.44309 2.4012 2.65145 2.288 2.894C2.11952 3.24697 2.02168 3.62948 2 4.02V16C2 16.65 2.156 17.004 2.29 17.204C2.43 17.412 2.63133 17.5813 2.894 17.712C3.23168 17.8736 3.59663 17.9706 3.97 17.998L4.02 18H28C28.65 18 29.004 17.844 29.204 17.71C29.4236 17.5569 29.5988 17.3486 29.712 17.106C29.8736 16.7683 29.9706 16.4034 29.998 16.03L30 15.98V4C30 3.35 29.844 2.996 29.71 2.796C29.5569 2.57644 29.3486 2.4012 29.106 2.288C28.753 2.11952 28.3705 2.02168 27.98 2H4C3.35 2 2.996 2.156 2.796 2.29Z" fill="#101828"/>
</svg>
